<svg height="512" viewBox="0 0 64 64" width="512" xmlns="http://www.w3.org/2000/svg"><g id="System_protect" data-name="System protect"><path d="m55 15h-8v.6a24.115 24.115 0 0 1 -.245 3.4h6.245v22h-42v-22h6.245a24.115 24.115 0 0 1 -.245-3.4v-.6h-8a2.006 2.006 0 0 0 -2 2v28h50v-28a2.006 2.006 0 0 0 -2-2z" fill="#9bc9ff"/><path d="m57 45h-50l-4 12h22l1-4h12l1 4h22z" fill="#9bc9ff"/><path d="m25 57h-22v2a2 2 0 0 0 2 2h54a2 2 0 0 0 2-2v-2z" fill="#9bc9ff"/><path d="m29.706 36.776 2.294 1.224 2.294-1.224a24 24 0 0 0 12.706-21.176v-12.6l-1.425.814a12 12 0 0 1 -11.318.316l-2.257-1.13-2.255 1.126a12 12 0 0 1 -11.322-.313l-1.423-.813v12.6a24 24 0 0 0 12.706 21.176zm-8.706-27.743a15.986 15.986 0 0 0 3.376.361 16.088 16.088 0 0 0 7.159-1.694l.465-.228.472.236a16.08 16.08 0 0 0 7.149 1.692 16.015 16.015 0 0 0 3.379-.366v6.566a19.965 19.965 0 0 1 -10.588 17.647l-.412.219-.411-.219a19.962 19.962 0 0 1 -10.589-17.647z" fill="#9bc9ff"/><g fill="#1e81ce"><path d="m58 44.838v-27.838a3 3 0 0 0 -3-3h-7v-11a1 1 0 0 0 -1.5-.868l-1.425.814a10.981 10.981 0 0 1 -10.375.289l-2.261-1.13a1 1 0 0 0 -.894 0l-2.245 1.126a10.975 10.975 0 0 1 -10.379-.286l-1.421-.813a1 1 0 0 0 -1.5.868v11h-7a3 3 0 0 0 -3 3v27.838l-4 12v2.162a3 3 0 0 0 3 3h54a3 3 0 0 0 3-3v-2.162zm-18.219 11.162-.811-3.243a1 1 0 0 0 -.97-.757h-12a1 1 0 0 0 -.97.757l-.811 3.243h-19.832l3.334-10h48.558l3.334 10zm-2.062 0h-11.438l.5-2h10.438zm-19.719-51.277a12.972 12.972 0 0 0 12.192.3l1.8-.9 1.814.906a12.971 12.971 0 0 0 12.194-.306v10.877a22.959 22.959 0 0 1 -12.177 20.294l-1.823.973-1.823-.973a22.959 22.959 0 0 1 -12.177-20.294zm11.235 32.936 2.294 1.223a1 1 0 0 0 .942 0l2.294-1.223a24.938 24.938 0 0 0 12.835-17.659h4.4v20h-40v-20h4.4a24.938 24.938 0 0 0 12.835 17.659zm-21.235-20.659a1 1 0 0 1 1-1h7.012q.021 1.006.116 2h-5.128a1 1 0 0 0 -1 1v22a1 1 0 0 0 1 1h42a1 1 0 0 0 1-1v-22a1 1 0 0 0 -1-1h-5.128q.095-.993.116-2h7.012a1 1 0 0 1 1 1v27h-48zm51 43h-54a1 1 0 0 1 -1-1v-1h56v1a1 1 0 0 1 -1 1z"/><path d="m37 48h2v2h-2z"/><path d="m9 48h2v2h-2z"/><path d="m13 48h2v2h-2z"/><path d="m17 48h2v2h-2z"/><path d="m21 48h2v2h-2z"/><path d="m41 48h2v2h-2z"/><path d="m45 48h2v2h-2z"/><path d="m49 48h2v2h-2z"/><path d="m25 48h2v2h-2z"/><path d="m29 48h2v2h-2z"/><path d="m33 48h2v2h-2z"/><path d="m53 48h2v2h-2z"/><path d="m41 52h6v2h-6z"/><path d="m49 52h2v2h-2z"/><path d="m53 52h2v2h-2z"/><path d="m9 52h2v2h-2z"/><path d="m13 52h2v2h-2z"/><path d="m17 52h6v2h-6z"/><path d="m31.118 34.129.411.22a1 1 0 0 0 .941 0l.412-.22a20.96 20.96 0 0 0 11.118-18.529v-6.566a1 1 0 0 0 -1.211-.978 15.117 15.117 0 0 1 -9.873-1.243l-.472-.235a1 1 0 0 0 -.9 0l-.462.231a15.117 15.117 0 0 1 -9.876 1.246 1 1 0 0 0 -1.206.978v6.567a20.96 20.96 0 0 0 11.118 18.529zm-9.118-23.902a17.141 17.141 0 0 0 9.982-1.627l.018-.01.024.013a17.1 17.1 0 0 0 9.976 1.625v5.372a18.965 18.965 0 0 1 -10 16.733 18.965 18.965 0 0 1 -10-16.733z"/><path d="m30 24a1 1 0 0 0 .707-.293l8.364-8.364a1 1 0 1 0 -1.414-1.414l-7.657 7.657-3.122-3.122a1 1 0 0 0 -1.414 1.414l3.829 3.829a1 1 0 0 0 .707.293z"/></g></g></svg>