<?xml version="1.0" encoding="iso-8859-1"?>
<!-- Generator: Adobe Illustrator 19.0.0, SVG Export Plug-In . SVG Version: 6.00 Build 0)  -->
<svg xmlns="http://www.w3.org/2000/svg" xmlns:xlink="http://www.w3.org/1999/xlink" version="1.1" id="Layer_1" x="0px" y="0px" viewBox="0 0 512 512" style="enable-background:new 0 0 512 512;" xml:space="preserve" width="512" height="512">
<g>
	<path d="M316,116c5.52,0,10-4.48,10-10s-4.48-10-10-10s-10,4.48-10,10S310.48,116,316,116z"/>
	<path d="M344.3,134.814c22.691,16.581,40.246,39.04,50.765,64.947c2.068,5.092,7.886,7.592,13.027,5.504   c5.117-2.078,7.581-7.91,5.504-13.027c-11.919-29.354-31.801-54.796-57.495-73.572c-4.458-3.257-10.716-2.285-13.975,2.174   C338.868,125.3,339.841,131.556,344.3,134.814z"/>
	<path d="M502,246h-36.244C460.674,138.146,373.853,51.326,266,46.244V10c0-5.522-4.478-10-10-10s-10,4.478-10,10v36.244   C138.147,51.326,51.326,138.146,46.244,246H10c-5.522,0-10,4.478-10,10s4.478,10,10,10h36.244   C51.326,373.854,138.147,460.674,246,465.756V502c0,5.522,4.478,10,10,10s10-4.478,10-10v-36.244   C373.853,460.674,460.674,373.854,465.756,266H502c5.522,0,10-4.478,10-10S507.522,246,502,246z M445.737,246H375.58   c-4.825-58.208-51.372-104.754-109.58-109.58V66.263C362.824,71.308,440.692,149.176,445.737,246z M336,265.99h19.501   c-4.705,47.173-42.328,84.806-89.501,89.511V336c0-5.522-4.478-10-10-10s-10,4.478-10,10v19.501   c-47.173-4.705-84.796-42.328-89.501-89.501H176c5.522,0,10-4.478,10-10s-4.478-10-10-10h-19.501   c4.705-47.173,42.328-84.796,89.501-89.501V176c0,5.522,4.478,10,10,10s10-4.478,10-10v-19.501   c47.173,4.705,84.796,42.328,89.501,89.501H336c-5.522,0-10,4.478-10,10S330.478,265.99,336,265.99z M246,66.263v70.157   c-58.208,4.825-104.754,51.372-109.58,109.58H66.263C71.308,149.176,149.176,71.308,246,66.263z M66.263,266h70.157   c4.825,58.208,51.372,104.754,109.58,109.58v70.157C149.176,440.692,71.308,362.824,66.263,266z M266,445.737V375.58   c58.208-4.825,104.754-51.382,109.58-109.59h70.157C440.692,362.814,362.824,440.692,266,445.737z"/>
	<path d="M296,246h-30v-30c0-5.522-4.478-10-10-10s-10,4.478-10,10v30h-30c-5.522,0-10,4.478-10,10s4.478,10,10,10h30v30   c0,5.522,4.478,10,10,10s10-4.478,10-10v-30h30c5.522,0,10-4.478,10-10S301.522,246,296,246z"/>
</g>















</svg>
