<svg height="512" viewBox="0 0 64 64" width="512" xmlns="http://www.w3.org/2000/svg"><g data-name="patient information-information-record-computer-data"><path d="M57 2H7a5 5 0 00-5 5v38a5 5 0 005 5h19v6h-6a3.009 3.009 0 00-3 3v2a1 1 0 001 1h28a1 1 0 001-1v-2a3.009 3.009 0 00-3-3h-6v-6h19a5 5 0 005-5V7a5 5 0 00-5-5zM44 58a1 1 0 011 1v1H19v-1a1 1 0 011-1zm-16-2v-6h8v6zm32-11a3.009 3.009 0 01-3 3H7a3.009 3.009 0 01-3-3v-3h56zm0-5H4V7a3.009 3.009 0 013-3h50a3.009 3.009 0 013 3z"/><path d="M54 44h2v2h-2zM50 44h2v2h-2zM33 8H9a1 1 0 00-1 1v26a1 1 0 001 1h24a1 1 0 001-1V9a1 1 0 00-1-1zm-5 26H14v-3a5 5 0 015-5h4a5 5 0 015 5zm-5.09-15.98l2.09.7V21a3.009 3.009 0 01-3 3h-2a3.009 3.009 0 01-3-3v-2.13zm-5.89-1.18A2.988 2.988 0 0120 14h2a3 3 0 012.96 2.6l-1.64-.55a1.032 1.032 0 00-.46-.04zM32 34h-2v-3a7.019 7.019 0 00-4.43-6.51A4.98 4.98 0 0027 21v-4a5 5 0 00-5-5h-2a5 5 0 00-5 5v4a4.98 4.98 0 001.43 3.49A7.019 7.019 0 0012 31v3h-2V10h22zM37 36h18a1 1 0 001-1v-4a1 1 0 00-1-1H37a1 1 0 00-1 1v4a1 1 0 001 1zm1-4h16v2H38zM36 8h4v2h-4zM42 8h14v2H42zM36 14h4v2h-4zM42 14h14v2H42zM36 20h4v2h-4zM42 20h14v2H42zM36 26h4v2h-4zM42 26h14v2H42z"/></g></svg>