<svg xmlns="http://www.w3.org/2000/svg" viewBox="0 0 496 496"><path fill="#ececec" d="M8 8v480h400V8z"/><path fill="#39c3fc" d="M168 384v-40H40v112h128v-24z"/><path d="M200 376h224v64H200l-56.512-21.192A11.537 11.537 0 01136 408c0-4.816 2.984-9.12 7.488-10.808L200 376z" fill="#8c95a4"/><path fill="#39c3fc" d="M328 232h128v112H328z"/><path d="M80 160v-42c0-43.08 34.92-78 78-78a77.986 77.986 0 0146.8 15.6L216 64c13.256 0 24 10.744 24 24v72H80z" fill="#d3a06c"/><path d="M269.36 274.76a31.982 31.982 0 00-24.496-22.584L184 240h-48l-60.864 12.176A32.007 32.007 0 0050.64 274.76L40 312h240l-10.64-37.24z" fill="#fb5968"/><path d="M244.864 252.176L184 240l14.056 9.376A98.463 98.463 0 01240 312h40l-10.64-37.24a31.982 31.982 0 00-24.496-22.584z" fill="#cd2c5a"/><g fill="#f9e0a6"><path d="M136 216v28.8c0 10.6 10.744 19.2 24 19.2s24-8.6 24-19.2V216h-48zM208 136h8c13.256 0 24 10.744 24 24s-10.744 24-24 24h-8v-48zM112 136h-8c-13.256 0-24 10.744-24 24s10.744 24 24 24h8v-48z"/><path d="M104 136v40c0 30.928 25.072 56 56 56s56-25.072 56-56v-40h-64c-13.256 0-24-10.744-24-24 0 13.256-10.744 24-24 24z"/></g><path d="M192 136v40c0 26.808-18.848 49.184-44 54.68 3.872.848 7.88 1.32 12 1.32 30.928 0 56-25.072 56-56v-40h-24z" fill="#eabd8c"/><path fill="#fea82f" d="M392 376h32v64h-32z"/><path fill="#fcd770" d="M200 376h192v32H200z"/><path fill="#ffc729" d="M200 408h192v32H200z"/><path d="M456 440h-32v-64h32c17.672 0 32 14.328 32 32s-14.328 32-32 32z" fill="#ececec"/><path fill="#b6c1ce" d="M200 440l208 40v-40z"/><path d="M456 368h-40v-16h56V224.808l22.248-27.816L481.752 187l-29.6 37H416V0H0v496h416v-48h40c22.056 0 40-17.944 40-40s-17.944-40-40-40zm-296 14.456l-19.328 7.248C133.096 392.552 128 399.904 128 408s5.096 15.448 12.68 18.304l19.32 7.24V448H48v-96h112v30.456zm-13.688 28.872c-1.384-.52-2.312-1.856-2.312-3.328s.928-2.808 2.304-3.32L192 387.544v40.912l-45.688-17.128zM208 416h144v-16H208v-16h176v16h-16v16h16v16H208v-16zm192-32h16v48h-16v-48zm-7.336-60.024L456 244.808V336H344v-96h95.352l-48.016 60.024-17.68-17.68-11.312 11.312 30.32 30.32zM400 480H16V16h384v208h-72v128h72v16H198.552L176 376.456V336H32v128h144v-24.456L198.552 448H400v32zm56-48h-24v-48h24c13.232 0 24 10.768 24 24s-10.768 24-24 24z"/><path d="M279.736 281.944c-5.792-20.256-22.208-35.4-42.864-39.528L192 233.44v-2.104c14.8-8.592 25.824-22.928 30.048-39.952C236.808 188.544 248 175.576 248 160V88c0-16.688-12.84-30.44-29.168-31.872L209.6 49.2C194.816 38.112 176.488 32 158 32c-47.424 0-86 38.576-86 86v42c0 15.576 11.192 28.544 25.952 31.392 4.224 17.024 15.248 31.36 30.048 39.952v2.104l-44.864 8.976c-20.656 4.128-37.08 19.272-42.864 39.528L29.392 320h261.216l-10.872-38.056zM144 237.896c5.128 1.328 10.464 2.104 16 2.104s10.872-.776 16-2.104V240c0 8.824-7.176 16-16 16s-16-7.176-16-16v-2.104zm80-64.12v-27.552c4.76 2.776 8 7.88 8 13.776s-3.24 11-8 13.776zM158 48c15.048 0 29.968 4.976 42 14l13.336 10H216c8.824 0 16 7.176 16 16v44.448c-4.728-2.752-10.144-4.448-16-4.448h-64c-8.824 0-16-7.176-16-16h-16c0 8.824-7.176 16-16 16-5.856 0-11.272 1.696-16 4.448V118c0-38.6 31.4-70 70-70zM88 160c0-5.896 3.24-11 8-13.776v27.552c-4.76-2.776-8-7.88-8-13.776zm24 16v-33.112c6.272-1.632 11.84-5.024 16-9.744C133.864 139.8 142.456 144 152 144h56v32c0 26.472-21.528 48-48 48s-48-21.528-48-48zm118.248 128l-6.488-25.936-15.52 3.872L213.752 304H106.248l5.512-22.064-15.52-3.872L89.752 304H50.608l5.048-17.664c4.136-14.472 15.864-25.28 30.616-28.232l43.312-8.664C133.64 262.464 145.664 272 160 272s26.36-9.536 30.416-22.56l43.312 8.664c14.752 2.952 26.48 13.776 30.616 28.232L269.392 304h-39.144zM264 32h120v16H264zM264 64h120v16H264zM264 96h120v16H264zM264 128h120v16H264zM368 160h16v16h-16z"/><path d="M264 160h88v16h-88zM264 192h120v16H264z"/></svg>