<svg height="512" viewBox="0 0 64 64" width="512" xmlns="http://www.w3.org/2000/svg"><g id="patient_information-information-record-computer-data" data-name="patient information-information-record-computer-data"><path d="m57 2h-50a5 5 0 0 0 -5 5v38a5 5 0 0 0 5 5h19v6h-6a3.009 3.009 0 0 0 -3 3v2a1 1 0 0 0 1 1h28a1 1 0 0 0 1-1v-2a3.009 3.009 0 0 0 -3-3h-6v-6h19a5 5 0 0 0 5-5v-38a5 5 0 0 0 -5-5zm-13 56a1 1 0 0 1 1 1v1h-26v-1a1 1 0 0 1 1-1zm-16-2v-6h8v6zm32-11a3.009 3.009 0 0 1 -3 3h-50a3.009 3.009 0 0 1 -3-3v-3h56zm0-5h-56v-33a3.009 3.009 0 0 1 3-3h50a3.009 3.009 0 0 1 3 3z"/><path d="m54 44h2v2h-2z"/><path d="m50 44h2v2h-2z"/><path d="m33 8h-24a1 1 0 0 0 -1 1v26a1 1 0 0 0 1 1h24a1 1 0 0 0 1-1v-26a1 1 0 0 0 -1-1zm-5 26h-14v-3a5 5 0 0 1 5-5h4a5 5 0 0 1 5 5zm-5.09-15.98 2.09.7v2.28a3.009 3.009 0 0 1 -3 3h-2a3.009 3.009 0 0 1 -3-3v-2.13zm-5.89-1.18a2.988 2.988 0 0 1 2.98-2.84h2a3 3 0 0 1 2.96 2.6l-1.64-.55a1.032 1.032 0 0 0 -.46-.04zm14.98 17.16h-2v-3a7.019 7.019 0 0 0 -4.43-6.51 4.98 4.98 0 0 0 1.43-3.49v-4a5 5 0 0 0 -5-5h-2a5 5 0 0 0 -5 5v4a4.98 4.98 0 0 0 1.43 3.49 7.019 7.019 0 0 0 -4.43 6.51v3h-2v-24h22z"/><path d="m37 36h18a1 1 0 0 0 1-1v-4a1 1 0 0 0 -1-1h-18a1 1 0 0 0 -1 1v4a1 1 0 0 0 1 1zm1-4h16v2h-16z"/><path d="m36 8h4v2h-4z"/><path d="m42 8h14v2h-14z"/><path d="m36 14h4v2h-4z"/><path d="m42 14h14v2h-14z"/><path d="m36 20h4v2h-4z"/><path d="m42 20h14v2h-14z"/><path d="m36 26h4v2h-4z"/><path d="m42 26h14v2h-14z"/></g></svg>