<svg xmlns="http://www.w3.org/2000/svg" viewBox="0 0 512 512"><path d="M256 0C114.617 0 0 114.617 0 256c0 52.03 15.563 100.414 42.231 140.818L0 512l119.128-39.706C158.72 497.399 205.639 512 256 512c141.383 0 256-114.617 256-256S397.383 0 256 0z" fill="#25ae88"/><path d="M397.233 335.078V377.6c.062 15.66-12.606 28.398-28.292 28.469-.892 0-1.783-.035-2.675-.115a281.346 281.346 0 01-122.571-43.52 276.77 276.77 0 01-85.222-85.054 280.178 280.178 0 01-43.599-122.898c-1.412-15.59 10.108-29.378 25.732-30.791a34.601 34.601 0 012.534-.106h42.611c14.257-.141 26.412 10.293 28.407 24.382a182.18 182.18 0 009.94 39.83 28.31 28.31 0 01-6.391 29.908l-18.035 17.999a227.035 227.035 0 0085.221 85.054l18.035-17.999c7.883-7.786 19.588-10.275 29.97-6.382a182.304 182.304 0 0039.91 9.922c14.282 2.013 24.786 14.39 24.425 28.779z" fill="#fff"/></svg>