<?xml version="1.0" encoding="iso-8859-1"?>
<!-- Generator: Adobe Illustrator 19.0.0, SVG Export Plug-In . SVG Version: 6.00 Build 0)  -->
<svg version="1.1" id="Capa_1" xmlns="http://www.w3.org/2000/svg" xmlns:xlink="http://www.w3.org/1999/xlink" x="0px" y="0px"
	 viewBox="0 0 496 496" style="enable-background:new 0 0 496 496;" xml:space="preserve">
<polygon style="fill:#ECECEC;" points="8,8 8,488 408,488 408,440 408,232 408,8 "/>
<polygon style="fill:#39C3FC;" points="168,384 168,344 40,344 40,456 168,456 168,432 "/>
<path style="fill:#8C95A4;" d="M200,376h224v64H200l-56.512-21.192C138.984,417.12,136,412.816,136,408l0,0
	c0-4.816,2.984-9.12,7.488-10.808L200,376z"/>
<rect x="328" y="232" style="fill:#39C3FC;" width="128" height="112"/>
<path style="fill:#D3A06C;" d="M80,160v-42c0-43.08,34.92-78,78-78l0,0c16.88,0,33.296,5.472,46.8,15.6L216,64l0,0
	c13.256,0,24,10.744,24,24v72H80z"/>
<path style="fill:#FB5968;" d="M269.36,274.76c-3.288-11.52-12.744-20.24-24.496-22.584L184,240h-48l-60.864,12.176
	c-11.752,2.352-21.2,11.064-24.496,22.584L40,312h240L269.36,274.76z"/>
<path style="fill:#CD2C5A;" d="M244.864,252.176L184,240l14.056,9.376C219.792,263.864,234.88,286.392,240,312l0,0h40l-10.64-37.24
	C266.072,263.24,256.616,254.52,244.864,252.176z"/>
<g>
	<path style="fill:#F9E0A6;" d="M136,216v28.8c0,10.6,10.744,19.2,24,19.2s24-8.6,24-19.2V216H136z"/>
	<path style="fill:#F9E0A6;" d="M208,136h8c13.256,0,24,10.744,24,24l0,0c0,13.256-10.744,24-24,24h-8V136z"/>
	<path style="fill:#F9E0A6;" d="M112,136h-8c-13.256,0-24,10.744-24,24l0,0c0,13.256,10.744,24,24,24h8V136z"/>
	<path style="fill:#F9E0A6;" d="M104,136v40c0,30.928,25.072,56,56,56l0,0c30.928,0,56-25.072,56-56v-40h-64
		c-13.256,0-24-10.744-24-24l0,0l0,0C128,125.256,117.256,136,104,136L104,136z"/>
</g>
<path style="fill:#EABD8C;" d="M192,136v40c0,26.808-18.848,49.184-44,54.68c3.872,0.848,7.88,1.32,12,1.32
	c30.928,0,56-25.072,56-56v-40H192z"/>
<rect x="392" y="376" style="fill:#FEA82F;" width="32" height="64"/>
<rect x="200" y="376" style="fill:#FCD770;" width="192" height="32"/>
<rect x="200" y="408" style="fill:#FFC729;" width="192" height="32"/>
<path style="fill:#ECECEC;" d="M456,440h-32v-64h32c17.672,0,32,14.328,32,32l0,0C488,425.672,473.672,440,456,440z"/>
<polygon style="fill:#B6C1CE;" points="200,440 408,480 408,440 "/>
<path d="M456,368h-40v-16h56V224.808l22.248-27.816L481.752,187l-29.6,37H416V0H0v496h416v-48h40c22.056,0,40-17.944,40-40
	S478.056,368,456,368z M160,382.456l-19.328,7.248C133.096,392.552,128,399.904,128,408s5.096,15.448,12.68,18.304l19.32,7.24V448
	H48v-96h112V382.456z M146.312,411.328c-1.384-0.52-2.312-1.856-2.312-3.328s0.928-2.808,2.304-3.32L192,387.544v40.912
	L146.312,411.328z M208,416h144v-16H208v-16h176v16h-16v16h16v16H208V416z M400,384h16v48h-16V384z M392.664,323.976L456,244.808
	V336H344v-96h95.352l-48.016,60.024l-17.68-17.68l-11.312,11.312L392.664,323.976z M400,480H16V16h384v208h-72v128h72v16H198.552
	L176,376.456V336H32v128h144v-24.456L198.552,448H400V480z M456,432h-24v-48h24c13.232,0,24,10.768,24,24S469.232,432,456,432z"/>
<path d="M279.736,281.944c-5.792-20.256-22.208-35.4-42.864-39.528L192,233.44v-2.104c14.8-8.592,25.824-22.928,30.048-39.952
	C236.808,188.544,248,175.576,248,160V88c0-16.688-12.84-30.44-29.168-31.872L209.6,49.2C194.816,38.112,176.488,32,158,32
	c-47.424,0-86,38.576-86,86v42c0,15.576,11.192,28.544,25.952,31.392c4.224,17.024,15.248,31.36,30.048,39.952v2.104l-44.864,8.976
	c-20.656,4.128-37.08,19.272-42.864,39.528L29.392,320h261.216L279.736,281.944z M144,237.896c5.128,1.328,10.464,2.104,16,2.104
	s10.872-0.776,16-2.104V240c0,8.824-7.176,16-16,16s-16-7.176-16-16V237.896z M224,173.776v-27.552c4.76,2.776,8,7.88,8,13.776
	S228.76,171,224,173.776z M158,48c15.048,0,29.968,4.976,42,14l13.336,10H216c8.824,0,16,7.176,16,16v44.448
	c-4.728-2.752-10.144-4.448-16-4.448h-64c-8.824,0-16-7.176-16-16h-16c0,8.824-7.176,16-16,16c-5.856,0-11.272,1.696-16,4.448V118
	C88,79.4,119.4,48,158,48z M88,160c0-5.896,3.24-11,8-13.776v27.552C91.24,171,88,165.896,88,160z M112,176v-33.112
	c6.272-1.632,11.84-5.024,16-9.744C133.864,139.8,142.456,144,152,144h56v32c0,26.472-21.528,48-48,48S112,202.472,112,176z
	 M230.248,304l-6.488-25.936l-15.52,3.872L213.752,304H106.248l5.512-22.064l-15.52-3.872L89.752,304H50.608l5.048-17.664
	c4.136-14.472,15.864-25.28,30.616-28.232l43.312-8.664C133.64,262.464,145.664,272,160,272s26.36-9.536,30.416-22.56l43.312,8.664
	c14.752,2.952,26.48,13.776,30.616,28.232L269.392,304H230.248z"/>
<rect x="264" y="32" width="120" height="16"/>
<rect x="264" y="64" width="120" height="16"/>
<rect x="264" y="96" width="120" height="16"/>
<rect x="264" y="128" width="120" height="16"/>
<rect x="368" y="160" width="16" height="16"/>
<rect x="264" y="160" width="88" height="16"/>
<rect x="264" y="192" width="120" height="16"/>
<g>
</g>
<g>
</g>
<g>
</g>
<g>
</g>
<g>
</g>
<g>
</g>
<g>
</g>
<g>
</g>
<g>
</g>
<g>
</g>
<g>
</g>
<g>
</g>
<g>
</g>
<g>
</g>
<g>
</g>
</svg>
