<svg xmlns="http://www.w3.org/2000/svg" viewBox="0 0 512 512"><path d="M187.733 51.2H204.8v17.067h-17.067zM119.467 51.2h17.067v17.067h-17.067zM51.2 51.2h17.067v17.067H51.2z"/><path d="M473.6 0H38.4C17.229 0 0 17.229 0 38.4v64h512v-64C512 17.229 494.771 0 473.6 0zM85.333 76.8a8.536 8.536 0 01-8.533 8.533H42.667a8.536 8.536 0 01-8.533-8.533V42.667a8.536 8.536 0 018.533-8.533H76.8a8.536 8.536 0 018.533 8.533V76.8zm68.267 0a8.536 8.536 0 01-8.533 8.533h-34.133a8.536 8.536 0 01-8.533-8.533V42.667a8.536 8.536 0 018.533-8.533h34.133a8.536 8.536 0 018.533 8.533V76.8zm68.267 0a8.536 8.536 0 01-8.533 8.533H179.2a8.536 8.536 0 01-8.533-8.533V42.667a8.536 8.536 0 018.533-8.533h34.133a8.536 8.536 0 018.533 8.533V76.8zM170.667 162.133v136.533h170.667V162.133H170.667zm151.099 82.833a8.51 8.51 0 01-6.033 2.5 8.509 8.509 0 01-6.033-2.5l-28.1-28.1-22.067 22.067 11.034 11.034a8.523 8.523 0 010 12.066 8.51 8.51 0 01-6.033 2.5 8.509 8.509 0 01-6.033-2.5l-28.1-28.1-28.1 28.1a8.51 8.51 0 01-6.033 2.5 8.509 8.509 0 01-6.033-2.5 8.523 8.523 0 010-12.066l34.133-34.133a8.523 8.523 0 0112.066 0l11.034 11.034 28.1-28.1a8.523 8.523 0 0112.066 0l34.133 34.133a8.522 8.522 0 01-.001 12.065zM0 162.133v136.533h110.933V162.133H0zm82.833 87.834a8.523 8.523 0 010 12.066 8.51 8.51 0 01-6.033 2.5 8.509 8.509 0 01-6.033-2.5l-25.6-25.6a8.523 8.523 0 010-12.066l25.6-25.6a8.523 8.523 0 0112.066 0 8.523 8.523 0 010 12.066L63.266 230.4l19.567 19.567zM315.733 435.2H196.267c-4.71 0-8.533 3.831-8.533 8.533s3.823 8.533 8.533 8.533h119.467c4.71 0 8.533-3.831 8.533-8.533s-3.823-8.533-8.534-8.533zM401.067 162.133v136.533H512V162.133H401.067zm65.766 74.3l-25.6 25.6a8.51 8.51 0 01-6.033 2.5 8.509 8.509 0 01-6.033-2.5 8.525 8.525 0 010-12.066l19.567-19.567-19.567-19.567a8.525 8.525 0 010-12.066 8.523 8.523 0 0112.066 0l25.6 25.6a8.523 8.523 0 010 12.066z"/><path d="M392.533 145.067H512v-25.6H0v25.6h119.467A8.536 8.536 0 01128 153.6v153.6a8.536 8.536 0 01-8.533 8.533H0V473.6C0 494.771 17.229 512 38.4 512h435.2c21.171 0 38.4-17.229 38.4-38.4V315.733H392.533A8.536 8.536 0 01384 307.2V153.6a8.536 8.536 0 018.533-8.533zM153.6 153.6a8.536 8.536 0 018.533-8.533h187.733a8.536 8.536 0 018.533 8.533v153.6a8.536 8.536 0 01-8.533 8.533H162.133a8.536 8.536 0 01-8.533-8.533V153.6zm196.267 196.267a8.536 8.536 0 01-8.533 8.533H170.667c-4.71 0-8.533-3.823-8.533-8.533s3.823-8.533 8.533-8.533h170.667c4.71-.001 8.533 3.822 8.533 8.533zm-34.134 119.466H196.267c-14.114 0-25.6-11.486-25.6-25.6s11.486-25.6 25.6-25.6h119.467c14.114 0 25.6 11.486 25.6 25.6s-11.487 25.6-25.601 25.6zm76.8-85.333a8.536 8.536 0 01-8.533 8.533H128c-4.71 0-8.533-3.823-8.533-8.533s3.823-8.533 8.533-8.533h256a8.536 8.536 0 018.533 8.533z"/></svg>