<?xml version="1.0" encoding="iso-8859-1"?>
<!-- Generator: Adobe Illustrator 19.0.0, SVG Export Plug-In . SVG Version: 6.00 Build 0)  -->
<svg version="1.1" id="Capa_1" xmlns="http://www.w3.org/2000/svg" xmlns:xlink="http://www.w3.org/1999/xlink" x="0px" y="0px"
	 viewBox="0 0 512 512" style="enable-background:new 0 0 512 512;" xml:space="preserve">
<g>
	<g>
		<rect x="187.733" y="51.2" width="17.067" height="17.067"/>
	</g>
</g>
<g>
	<g>
		<rect x="119.467" y="51.2" width="17.067" height="17.067"/>
	</g>
</g>
<g>
	<g>
		<rect x="51.2" y="51.2" width="17.067" height="17.067"/>
	</g>
</g>
<g>
	<g>
		<path d="M473.6,0H38.4C17.229,0,0,17.229,0,38.4v64h512v-64C512,17.229,494.771,0,473.6,0z M85.333,76.8
			c0,4.71-3.823,8.533-8.533,8.533H42.667c-4.71,0-8.533-3.823-8.533-8.533V42.667c0-4.71,3.823-8.533,8.533-8.533H76.8
			c4.71,0,8.533,3.823,8.533,8.533V76.8z M153.6,76.8c0,4.71-3.823,8.533-8.533,8.533h-34.133c-4.71,0-8.533-3.823-8.533-8.533
			V42.667c0-4.71,3.823-8.533,8.533-8.533h34.133c4.71,0,8.533,3.823,8.533,8.533V76.8z M221.867,76.8
			c0,4.71-3.823,8.533-8.533,8.533H179.2c-4.71,0-8.533-3.823-8.533-8.533V42.667c0-4.71,3.823-8.533,8.533-8.533h34.133
			c4.71,0,8.533,3.823,8.533,8.533V76.8z"/>
	</g>
</g>
<g>
	<g>
		<path d="M170.667,162.133v136.533h170.667V162.133H170.667z M321.766,244.966c-1.664,1.664-3.849,2.5-6.033,2.5
			c-2.185,0-4.369-0.836-6.033-2.5l-28.1-28.1l-22.067,22.067l11.034,11.034c3.337,3.337,3.337,8.73,0,12.066
			c-1.664,1.664-3.849,2.5-6.033,2.5c-2.185,0-4.369-0.836-6.033-2.5l-28.1-28.1l-28.1,28.1c-1.664,1.664-3.849,2.5-6.033,2.5
			c-2.185,0-4.369-0.836-6.033-2.5c-3.337-3.337-3.337-8.73,0-12.066l34.133-34.133c3.328-3.337,8.738-3.337,12.066,0l11.034,11.034
			l28.1-28.1c3.328-3.337,8.738-3.337,12.066,0l34.133,34.133C325.103,236.237,325.103,241.63,321.766,244.966z"/>
	</g>
</g>
<g>
	<g>
		<path d="M0,162.133v136.533h110.933V162.133H0z M82.833,249.967c3.337,3.337,3.337,8.73,0,12.066
			c-1.664,1.664-3.849,2.5-6.033,2.5c-2.185,0-4.369-0.836-6.033-2.5l-25.6-25.6c-3.337-3.337-3.337-8.73,0-12.066l25.6-25.6
			c3.328-3.337,8.738-3.337,12.066,0c3.337,3.337,3.337,8.73,0,12.066L63.266,230.4L82.833,249.967z"/>
	</g>
</g>
<g>
	<g>
		<path d="M315.733,435.2H196.267c-4.71,0-8.533,3.831-8.533,8.533c0,4.702,3.823,8.533,8.533,8.533h119.467
			c4.71,0,8.533-3.831,8.533-8.533C324.267,439.031,320.444,435.2,315.733,435.2z"/>
	</g>
</g>
<g>
	<g>
		<path d="M401.067,162.133v136.533H512V162.133H401.067z M466.833,236.433l-25.6,25.6c-1.664,1.664-3.849,2.5-6.033,2.5
			c-2.185,0-4.369-0.836-6.033-2.5c-3.336-3.337-3.336-8.73,0-12.066l19.567-19.567l-19.567-19.567
			c-3.336-3.337-3.336-8.73,0-12.066c3.328-3.337,8.738-3.337,12.066,0l25.6,25.6C470.17,227.703,470.17,233.097,466.833,236.433z"
			/>
	</g>
</g>
<g>
	<g>
		<path d="M392.533,145.067H512v-25.6H0v25.6h119.467c4.71,0,8.533,3.823,8.533,8.533v153.6c0,4.71-3.823,8.533-8.533,8.533H0V473.6
			C0,494.771,17.229,512,38.4,512h435.2c21.171,0,38.4-17.229,38.4-38.4V315.733H392.533c-4.71,0-8.533-3.823-8.533-8.533V153.6
			C384,148.89,387.823,145.067,392.533,145.067z M153.6,153.6c0-4.71,3.823-8.533,8.533-8.533h187.733
			c4.71,0,8.533,3.823,8.533,8.533v153.6c0,4.71-3.823,8.533-8.533,8.533H162.133c-4.71,0-8.533-3.823-8.533-8.533V153.6z
			 M349.867,349.867c0,4.71-3.823,8.533-8.533,8.533H170.667c-4.71,0-8.533-3.823-8.533-8.533s3.823-8.533,8.533-8.533h170.667
			C346.044,341.333,349.867,345.156,349.867,349.867z M315.733,469.333H196.267c-14.114,0-25.6-11.486-25.6-25.6
			s11.486-25.6,25.6-25.6h119.467c14.114,0,25.6,11.486,25.6,25.6S329.847,469.333,315.733,469.333z M392.533,384
			c0,4.71-3.823,8.533-8.533,8.533H128c-4.71,0-8.533-3.823-8.533-8.533s3.823-8.533,8.533-8.533h256
			C388.71,375.467,392.533,379.29,392.533,384z"/>
	</g>
</g>
<g>
</g>
<g>
</g>
<g>
</g>
<g>
</g>
<g>
</g>
<g>
</g>
<g>
</g>
<g>
</g>
<g>
</g>
<g>
</g>
<g>
</g>
<g>
</g>
<g>
</g>
<g>
</g>
<g>
</g>
</svg>
