<?xml version="1.0" encoding="iso-8859-1"?>
<!-- Generator: Adobe Illustrator 19.0.0, SVG Export Plug-In . SVG Version: 6.00 Build 0)  -->
<svg version="1.1" id="Capa_1" xmlns="http://www.w3.org/2000/svg" xmlns:xlink="http://www.w3.org/1999/xlink" x="0px" y="0px"
	 viewBox="0 0 512 512" style="enable-background:new 0 0 512 512;" xml:space="preserve">
<g>
	<g>
		<path d="M401.067,426.667H110.933c-4.71,0-8.533,3.823-8.533,8.533v40.397c0,20.07,16.333,36.403,36.403,36.403h234.394
			c20.07,0,36.403-16.333,36.403-36.403V435.2C409.6,430.49,405.777,426.667,401.067,426.667z M392.533,475.597
			c0,10.658-8.67,19.336-19.328,19.336H138.803c-10.667,0-19.337-8.678-19.337-19.336v-31.864h273.067V475.597z"/>
	</g>
</g>
<g>
	<g>
		<path d="M281.6,460.8h-51.2c-4.71,0-8.533,3.823-8.533,8.533s3.823,8.533,8.533,8.533h51.2c4.71,0,8.533-3.823,8.533-8.533
			S286.31,460.8,281.6,460.8z"/>
	</g>
</g>
<g>
	<g>
		<path d="M358.4,460.8h-34.133c-4.71,0-8.533,3.823-8.533,8.533s3.823,8.533,8.533,8.533H358.4c4.71,0,8.533-3.823,8.533-8.533
			S363.11,460.8,358.4,460.8z"/>
	</g>
</g>
<g>
	<g>
		<path d="M187.733,460.8H153.6c-4.71,0-8.533,3.823-8.533,8.533s3.823,8.533,8.533,8.533h34.133c4.71,0,8.533-3.823,8.533-8.533
			S192.444,460.8,187.733,460.8z"/>
	</g>
</g>
<g>
	<g>
		<path d="M373.205,0H138.803C118.733,0,102.4,16.333,102.4,36.403V76.8c0,4.71,3.823,8.533,8.533,8.533h290.133
			c4.71,0,8.533-3.823,8.533-8.533V36.403C409.6,16.333,393.267,0,373.205,0z M392.533,68.267H119.467V36.403
			c0-10.658,8.67-19.337,19.337-19.337h234.394c10.667,0,19.336,8.678,19.336,19.337V68.267z"/>
	</g>
</g>
<g>
	<g>
		<path d="M298.667,34.133h-85.333c-4.71,0-8.533,3.823-8.533,8.533c0,4.71,3.823,8.533,8.533,8.533h85.333
			c4.71,0,8.533-3.823,8.533-8.533C307.2,37.956,303.377,34.133,298.667,34.133z"/>
	</g>
</g>
<g>
	<g>
		<path d="M401.067,68.267H110.933c-4.71,0-8.533,3.823-8.533,8.533v358.4c0,4.71,3.823,8.533,8.533,8.533h290.133
			c4.71,0,8.533-3.823,8.533-8.533V76.8C409.6,72.09,405.777,68.267,401.067,68.267z M392.533,426.667H119.467V85.333h273.067
			V426.667z"/>
	</g>
</g>
<g>
	<g>
		<path d="M451.934,193.886c-1.323-4.531-6.042-7.151-10.581-5.811c-4.531,1.314-7.125,6.05-5.811,10.573
			c5.393,18.543,8.132,37.837,8.132,57.344c0,19.576-2.756,38.929-8.192,57.532c-1.314,4.523,1.28,9.259,5.803,10.581
			c0.802,0.239,1.604,0.35,2.398,0.35c3.695,0,7.1-2.415,8.192-6.144c5.888-20.156,8.875-41.122,8.875-62.31
			C460.749,234.88,457.779,213.982,451.934,193.886z"/>
	</g>
</g>
<g>
	<g>
		<path d="M76.518,313.532c-5.436-18.603-8.192-37.965-8.192-57.532c0-19.507,2.739-38.801,8.141-57.353
			c1.314-4.523-1.289-9.259-5.811-10.573c-4.54-1.331-9.267,1.28-10.581,5.811C54.229,213.982,51.26,234.88,51.26,256
			c0,21.188,2.987,42.155,8.875,62.31c1.084,3.721,4.489,6.144,8.183,6.144c0.794,0,1.596-0.111,2.398-0.341
			C75.247,322.79,77.841,318.054,76.518,313.532z"/>
	</g>
</g>
<g>
	<g>
		<path d="M17.067,256c0-34.731,5.794-66.833,16.324-90.385c1.92-4.301-0.009-9.344-4.309-11.273
			c-4.292-1.911-9.344,0.009-11.273,4.309C6.323,184.354,0,218.923,0,256s6.323,71.646,17.801,97.348
			c1.425,3.166,4.54,5.052,7.799,5.052c1.169,0,2.347-0.239,3.482-0.742c4.301-1.92,6.229-6.972,4.309-11.273
			C22.861,322.833,17.067,290.731,17.067,256z"/>
	</g>
</g>
<g>
	<g>
		<path d="M494.191,158.652c-1.929-4.301-6.963-6.221-11.273-4.309c-4.301,1.92-6.229,6.972-4.309,11.273
			c10.53,23.552,16.324,55.654,16.324,90.385s-5.794,66.833-16.316,90.385c-1.92,4.301,0.009,9.344,4.309,11.273
			c1.126,0.503,2.313,0.742,3.473,0.742c3.26,0,6.374-1.877,7.791-5.052C505.677,327.646,512,293.077,512,256
			S505.677,184.354,494.191,158.652z"/>
	</g>
</g>
<g>
	<g>
		<path d="M366.933,119.467H145.067c-4.71,0-8.533,3.823-8.533,8.533v102.4c0,4.71,3.823,8.533,8.533,8.533h221.867
			c4.71,0,8.533-3.823,8.533-8.533V128C375.467,123.29,371.644,119.467,366.933,119.467z M358.4,221.867H153.6v-85.333h204.8
			V221.867z"/>
	</g>
</g>
<g>
	<g>
		<path d="M298.667,153.6h-34.133c-4.71,0-8.533,3.823-8.533,8.533c0,4.71,3.823,8.533,8.533,8.533h34.133
			c4.71,0,8.533-3.823,8.533-8.533C307.2,157.423,303.377,153.6,298.667,153.6z"/>
	</g>
</g>
<g>
	<g>
		<path d="M332.8,187.733h-68.267c-4.71,0-8.533,3.823-8.533,8.533s3.823,8.533,8.533,8.533H332.8c4.71,0,8.533-3.823,8.533-8.533
			S337.51,187.733,332.8,187.733z"/>
	</g>
</g>
<g>
	<g>
		<path d="M230.4,119.467h-85.333c-4.71,0-8.533,3.823-8.533,8.533v102.4c0,4.71,3.823,8.533,8.533,8.533H230.4
			c4.71,0,8.533-3.823,8.533-8.533V128C238.933,123.29,235.11,119.467,230.4,119.467z M221.867,221.867H153.6v-85.333h68.267
			V221.867z"/>
	</g>
</g>
<g>
	<g>
		<path d="M366.933,273.067H145.067c-4.71,0-8.533,3.823-8.533,8.533V384c0,4.71,3.823,8.533,8.533,8.533h221.867
			c4.71,0,8.533-3.823,8.533-8.533V281.6C375.467,276.89,371.644,273.067,366.933,273.067z M358.4,375.467H153.6v-85.333h204.8
			V375.467z"/>
	</g>
</g>
<g>
	<g>
		<path d="M298.667,307.2h-34.133c-4.71,0-8.533,3.823-8.533,8.533s3.823,8.533,8.533,8.533h34.133c4.71,0,8.533-3.823,8.533-8.533
			S303.377,307.2,298.667,307.2z"/>
	</g>
</g>
<g>
	<g>
		<path d="M332.8,341.333h-68.267c-4.71,0-8.533,3.823-8.533,8.533s3.823,8.533,8.533,8.533H332.8c4.71,0,8.533-3.823,8.533-8.533
			S337.51,341.333,332.8,341.333z"/>
	</g>
</g>
<g>
	<g>
		<path d="M230.4,273.067h-85.333c-4.71,0-8.533,3.823-8.533,8.533V384c0,4.71,3.823,8.533,8.533,8.533H230.4
			c4.71,0,8.533-3.823,8.533-8.533V281.6C238.933,276.89,235.11,273.067,230.4,273.067z M221.867,375.467H153.6v-85.333h68.267
			V375.467z"/>
	</g>
</g>
<g>
</g>
<g>
</g>
<g>
</g>
<g>
</g>
<g>
</g>
<g>
</g>
<g>
</g>
<g>
</g>
<g>
</g>
<g>
</g>
<g>
</g>
<g>
</g>
<g>
</g>
<g>
</g>
<g>
</g>
</svg>
