<svg xmlns="http://www.w3.org/2000/svg" viewBox="0 0 512 512"><path d="M401.067 426.667H110.933a8.536 8.536 0 00-8.533 8.533v40.397c0 20.07 16.333 36.403 36.403 36.403h234.394c20.07 0 36.403-16.333 36.403-36.403V435.2a8.536 8.536 0 00-8.533-8.533zm-8.534 48.93c0 10.658-8.67 19.336-19.328 19.336H138.803c-10.667 0-19.337-8.678-19.337-19.336v-31.864h273.067v31.864z"/><path d="M281.6 460.8h-51.2c-4.71 0-8.533 3.823-8.533 8.533s3.823 8.533 8.533 8.533h51.2c4.71 0 8.533-3.823 8.533-8.533s-3.823-8.533-8.533-8.533zM358.4 460.8h-34.133c-4.71 0-8.533 3.823-8.533 8.533s3.823 8.533 8.533 8.533H358.4c4.71 0 8.533-3.823 8.533-8.533s-3.823-8.533-8.533-8.533zM187.733 460.8H153.6c-4.71 0-8.533 3.823-8.533 8.533s3.823 8.533 8.533 8.533h34.133c4.71 0 8.533-3.823 8.533-8.533s-3.822-8.533-8.533-8.533zM373.205 0H138.803C118.733 0 102.4 16.333 102.4 36.403V76.8a8.536 8.536 0 008.533 8.533h290.133a8.536 8.536 0 008.533-8.533V36.403C409.6 16.333 393.267 0 373.205 0zm19.328 68.267H119.467V36.403c0-10.658 8.67-19.337 19.337-19.337h234.394c10.667 0 19.336 8.678 19.336 19.337v31.864z"/><path d="M298.667 34.133h-85.333a8.536 8.536 0 00-8.533 8.533 8.536 8.536 0 008.533 8.533h85.333a8.536 8.536 0 008.533-8.533 8.536 8.536 0 00-8.533-8.533zM401.067 68.267H110.933A8.536 8.536 0 00102.4 76.8v358.4a8.536 8.536 0 008.533 8.533h290.133a8.536 8.536 0 008.533-8.533V76.8c.001-4.71-3.822-8.533-8.532-8.533zm-8.534 358.4H119.467V85.333h273.067v341.334zM451.934 193.886c-1.323-4.531-6.042-7.151-10.581-5.811-4.531 1.314-7.125 6.05-5.811 10.573 5.393 18.543 8.132 37.837 8.132 57.344 0 19.576-2.756 38.929-8.192 57.532-1.314 4.523 1.28 9.259 5.803 10.581.802.239 1.604.35 2.398.35 3.695 0 7.1-2.415 8.192-6.144 5.888-20.156 8.875-41.122 8.875-62.31-.001-21.121-2.971-42.019-8.816-62.115zM76.518 313.532c-5.436-18.603-8.192-37.965-8.192-57.532 0-19.507 2.739-38.801 8.141-57.353 1.314-4.523-1.289-9.259-5.811-10.573-4.54-1.331-9.267 1.28-10.581 5.811C54.229 213.982 51.26 234.88 51.26 256c0 21.188 2.987 42.155 8.875 62.31a8.534 8.534 0 0010.581 5.803c4.531-1.323 7.125-6.059 5.802-10.581zM17.067 256c0-34.731 5.794-66.833 16.324-90.385 1.92-4.301-.009-9.344-4.309-11.273-4.292-1.911-9.344.009-11.273 4.309C6.323 184.354 0 218.923 0 256s6.323 71.646 17.801 97.348A8.56 8.56 0 0025.6 358.4a8.558 8.558 0 003.482-.742c4.301-1.92 6.229-6.972 4.309-11.273-10.53-23.552-16.324-55.654-16.324-90.385zM494.191 158.652c-1.929-4.301-6.963-6.221-11.273-4.309-4.301 1.92-6.229 6.972-4.309 11.273 10.53 23.552 16.324 55.654 16.324 90.385s-5.794 66.833-16.316 90.385c-1.92 4.301.009 9.344 4.309 11.273a8.524 8.524 0 0011.264-4.31C505.677 327.646 512 293.077 512 256s-6.323-71.646-17.809-97.348z"/><path d="M366.933 119.467H145.067a8.536 8.536 0 00-8.533 8.533v102.4a8.536 8.536 0 008.533 8.533h221.867a8.536 8.536 0 008.533-8.533V128c0-4.71-3.823-8.533-8.534-8.533zm-8.533 102.4H153.6v-85.333h204.8v85.333z"/><path d="M298.667 153.6h-34.133a8.536 8.536 0 00-8.533 8.533 8.536 8.536 0 008.533 8.533h34.133a8.536 8.536 0 008.533-8.533 8.536 8.536 0 00-8.533-8.533zM332.8 187.733h-68.267c-4.71 0-8.533 3.823-8.533 8.533s3.823 8.533 8.533 8.533H332.8c4.71 0 8.533-3.823 8.533-8.533s-3.823-8.533-8.533-8.533zM230.4 119.467h-85.333a8.536 8.536 0 00-8.533 8.533v102.4a8.536 8.536 0 008.533 8.533H230.4a8.536 8.536 0 008.533-8.533V128a8.536 8.536 0 00-8.533-8.533zm-8.533 102.4H153.6v-85.333h68.267v85.333zM366.933 273.067H145.067a8.536 8.536 0 00-8.533 8.533V384a8.536 8.536 0 008.533 8.533h221.867a8.536 8.536 0 008.533-8.533V281.6c0-4.71-3.823-8.533-8.534-8.533zm-8.533 102.4H153.6v-85.333h204.8v85.333z"/><path d="M298.667 307.2h-34.133c-4.71 0-8.533 3.823-8.533 8.533s3.823 8.533 8.533 8.533h34.133c4.71 0 8.533-3.823 8.533-8.533s-3.823-8.533-8.533-8.533zM332.8 341.333h-68.267c-4.71 0-8.533 3.823-8.533 8.533s3.823 8.533 8.533 8.533H332.8c4.71 0 8.533-3.823 8.533-8.533s-3.823-8.533-8.533-8.533zM230.4 273.067h-85.333a8.536 8.536 0 00-8.533 8.533V384a8.536 8.536 0 008.533 8.533H230.4a8.536 8.536 0 008.533-8.533V281.6a8.536 8.536 0 00-8.533-8.533zm-8.533 102.4H153.6v-85.333h68.267v85.333z"/></svg>