<svg viewBox="0 0 1776 2500" xmlns="http://www.w3.org/2000/svg"><path d="M1776 489.9H0l166.5 1805.5L887.9 2500l721.4-204.6z" fill="#e6a329"/><path d="M887.9 637v1710l584.5-165.6L1614.6 637z" fill="#f1bf22"/><path d="M1352.9 858.5H454.2l-62.6 676 1.3-4.2h763.5l-24.9 286-243.6 70.1-247.2-71.2-14.8-173.1H401.5l32 345.9 454.4 129 454.6-129 62.6-678.9H594.8l10.4-226.2h562.2l8.4 129.6h226.4z" fill="#fff"/><path d="M888.1 858.5H454.2l-62.6 676 1.3-4.2h495.2v-220.5H626.4l10.4-226.2h251.3zm-261.7 783.6H401.5l32 345.7 454.4 128.8v-230l-247.2-71.4z" fill="#ebebeb"/><path d="M715.2 223.6H557.1v113.5h271.2V0H715.2zM1218.8 1.8H943.2v118c36.8 36.8 56 54.5 110.2 107.8H943.2v107.6h275.6V227.8L1108.6 120h110.2z" fill="#231f20"/></svg>