<svg height="512" viewBox="0 0 64 64" width="512" xmlns="http://www.w3.org/2000/svg"><g data-name="System protect"><path d="M55 15h-8v.6a24.115 24.115 0 01-.245 3.4H53v22H11V19h6.245A24.115 24.115 0 0117 15.6V15H9a2.006 2.006 0 00-2 2v28h50V17a2.006 2.006 0 00-2-2zM57 45H7L3 57h22l1-4h12l1 4h22zM25 57H3v2a2 2 0 002 2h54a2 2 0 002-2v-2z" fill="#9bc9ff"/><path d="M29.706 36.776L32 38l2.294-1.224A24 24 0 0047 15.6V3l-1.425.814a12 12 0 01-11.318.316L32 3l-2.255 1.126a12 12 0 01-11.322-.313L17 3v12.6a24 24 0 0012.706 21.176zM21 9.033a15.986 15.986 0 003.376.361A16.088 16.088 0 0031.535 7.7L32 7.472l.472.236A16.08 16.08 0 0039.621 9.4 16.015 16.015 0 0043 9.034V15.6a19.965 19.965 0 01-10.588 17.647l-.412.219-.411-.219A19.962 19.962 0 0121 15.6z" fill="#9bc9ff"/><g fill="#1e81ce"><path d="M58 44.838V17a3 3 0 00-3-3h-7V3a1 1 0 00-1.5-.868l-1.425.814a10.981 10.981 0 01-10.375.289l-2.261-1.13a1 1 0 00-.894 0L29.3 3.231a10.975 10.975 0 01-10.379-.286L17.5 2.132A1 1 0 0016 3v11H9a3 3 0 00-3 3v27.838l-4 12V59a3 3 0 003 3h54a3 3 0 003-3v-2.162zM39.781 56l-.811-3.243A1 1 0 0038 52H26a1 1 0 00-.97.757L24.219 56H4.387l3.334-10h48.558l3.334 10zm-2.062 0H26.281l.5-2h10.438zM18 4.723a12.972 12.972 0 0012.192.3l1.8-.9 1.814.906A12.971 12.971 0 0046 4.723V15.6a22.959 22.959 0 01-12.177 20.294L32 36.867l-1.823-.973A22.959 22.959 0 0118 15.6zm11.235 32.936l2.294 1.223a1 1 0 00.942 0l2.294-1.223A24.938 24.938 0 0047.6 20H52v20H12V20h4.4a24.938 24.938 0 0012.835 17.659zM8 17a1 1 0 011-1h7.012q.021 1.006.116 2H11a1 1 0 00-1 1v22a1 1 0 001 1h42a1 1 0 001-1V19a1 1 0 00-1-1h-5.128q.095-.993.116-2H55a1 1 0 011 1v27H8zm51 43H5a1 1 0 01-1-1v-1h56v1a1 1 0 01-1 1z"/><path d="M37 48h2v2h-2zM9 48h2v2H9zM13 48h2v2h-2zM17 48h2v2h-2zM21 48h2v2h-2zM41 48h2v2h-2zM45 48h2v2h-2zM49 48h2v2h-2zM25 48h2v2h-2zM29 48h2v2h-2zM33 48h2v2h-2zM53 48h2v2h-2zM41 52h6v2h-6zM49 52h2v2h-2zM53 52h2v2h-2zM9 52h2v2H9zM13 52h2v2h-2zM17 52h6v2h-6zM31.118 34.129l.411.22a1 1 0 00.941 0l.412-.22A20.96 20.96 0 0044 15.6V9.034a1 1 0 00-1.211-.978 15.117 15.117 0 01-9.873-1.243l-.472-.235a1 1 0 00-.9 0l-.462.231a15.117 15.117 0 01-9.876 1.246A1 1 0 0020 9.033V15.6a20.96 20.96 0 0011.118 18.529zM22 10.227A17.141 17.141 0 0031.982 8.6L32 8.59l.024.013A17.1 17.1 0 0042 10.228V15.6a18.965 18.965 0 01-10 16.733A18.965 18.965 0 0122 15.6z"/><path d="M30 24a1 1 0 00.707-.293l8.364-8.364a1 1 0 10-1.414-1.414L30 21.586l-3.122-3.122a1 1 0 00-1.414 1.414l3.829 3.829A1 1 0 0030 24z"/></g></g></svg>