<svg height="512pt" viewBox="0 0 512 512.002" width="512pt" xmlns="http://www.w3.org/2000/svg"><path d="m493.257812 222.078125h-125.101562c-10.335938 0-18.742188 8.40625-18.742188 18.742187v94.519532c0 4.179687 3.390626 7.570312 7.574219 7.570312 4.183594 0 7.574219-3.390625 7.574219-7.570312v-63.488282h132.289062v190.375h-132.289062v-91.480468c0-4.183594-3.390625-7.574219-7.574219-7.574219-4.183593 0-7.574219 3.390625-7.574219 7.574219v122.511718c0 10.335938 8.40625 18.746094 18.742188 18.746094h125.101562c10.335938 0 18.746094-8.410156 18.746094-18.746094v-252.4375c-.003906-10.335937-8.410156-18.742187-18.746094-18.742187zm-128.695312 34.625v-15.882813c0-1.980468 1.613281-3.59375 3.59375-3.59375h125.101562c1.980469 0 3.597657 1.613282 3.597657 3.59375v15.882813zm128.695312 240.148437h-125.101562c-1.980469 0-3.59375-1.613281-3.59375-3.59375v-15.886718h132.289062v15.886718c0 1.980469-1.613281 3.59375-3.59375 3.59375zm0 0"/><path d="m285.261719 0h-185.621094c-4.183594 0-7.574219 3.390625-7.574219 7.574219 0 4.183593 3.390625 7.574219 7.574219 7.574219h185.621094c3.253906 0 5.902343 2.648437 5.902343 5.90625v162.269531h-276.015624v-162.269531c0-3.257813 2.652343-5.90625 5.90625-5.90625h42.566406c4.183594 0 7.574218-3.390626 7.574218-7.574219 0-4.183594-3.390624-7.574219-7.574218-7.574219h-42.566406c-11.609376 0-21.054688 9.445312-21.054688 21.054688v196.804687c0 11.609375 9.445312 21.054687 21.054688 21.054687h90.828124v25.289063h-12.644531c-7.894531 0-14.3125 6.421875-14.3125 14.316406v24.261719c0 7.894531 6.417969 14.316406 14.3125 14.316406h107.839844c7.890625 0 14.3125-6.421875 14.3125-14.316406v-24.261719c0-7.894531-6.421875-14.316406-14.3125-14.316406h-12.648437v-25.289063h90.832031c11.605469 0 21.050781-9.445312 21.050781-21.054687v-196.804687c0-11.609376-9.445312-21.054688-21.050781-21.054688zm-98.40625 279.351562h19.386719v22.597657h-106.171876v-22.597657h19.386719c4.183594 0 7.574219-3.390624 7.574219-7.574218v-32.863282h52.25v32.863282c0 4.1875 3.394531 7.574218 7.574219 7.574218zm98.40625-55.585937h-264.207031c-3.253907 0-5.90625-2.648437-5.90625-5.90625v-19.386719h276.015624v19.386719c0 3.257813-2.648437 5.90625-5.902343 5.90625zm0 0"/><path d="m383.46875 131.558594c2.636719-1.257813 4.320312-3.917969 4.320312-6.839844v-15.652344h14.136719v69.175782c0 4.183593 3.390625 7.574218 7.574219 7.574218h32.316406c4.183594 0 7.574219-3.390625 7.574219-7.574218v-92.910157c0-13.085937-10.648437-23.730469-23.734375-23.730469h-37.867188v-15.652343c0-2.921875-1.679687-5.582031-4.320312-6.839844-2.640625-1.253906-5.761719-.882813-8.03125.960937l-48.472656 39.386719c-1.769532 1.4375-2.800782 3.597657-2.800782 5.878907s1.03125 4.4375 2.800782 5.878906l48.472656 39.382812c2.265625 1.839844 5.394531 2.214844 8.03125.960938zm-10.828125-30.066406v7.3125l-28.890625-23.472657 28.890625-23.472656v7.316406c0 4.183594 3.390625 7.574219 7.574219 7.574219h45.441406c4.734375 0 8.585938 3.851562 8.585938 8.585938v85.332031h-17.167969v-69.175781c0-4.183594-3.390625-7.574219-7.574219-7.574219h-29.285156c-4.183594 0-7.574219 3.390625-7.574219 7.574219zm0 0"/><path d="m249.667969 450.074219-48.472657-39.386719c-2.265624-1.839844-5.394531-2.214844-8.03125-.960938-2.636718 1.257813-4.320312 3.917969-4.320312 6.839844v15.652344h-14.136719v-69.175781c0-4.183594-3.390625-7.574219-7.574219-7.574219h-32.316406c-4.183594 0-7.574218 3.390625-7.574218 7.574219v22.722656c0 4.183594 3.390624 7.574219 7.574218 7.574219s7.574219-3.390625 7.574219-7.574219v-15.148437h17.167969v69.175781c0 4.183593 3.390625 7.574219 7.574218 7.574219h29.285157c4.183593 0 7.574219-3.390626 7.574219-7.574219v-7.3125l28.890624 23.46875-28.890624 23.472656v-7.3125c0-4.183594-3.390626-7.574219-7.574219-7.574219h-45.441407c-4.734374 0-8.585937-3.851562-8.585937-8.585937v-34.824219c0-4.183594-3.390625-7.574219-7.574219-7.574219s-7.574218 3.390625-7.574218 7.574219v34.824219c0 13.085937 10.648437 23.734375 23.734374 23.734375h37.867188v15.652344c0 2.921874 1.679688 5.582031 4.320312 6.839843 1.035157.492188 2.148438.734375 3.253907.734375 1.707031 0 3.398437-.578125 4.777343-1.695312l48.472657-39.386719c1.769531-1.4375 2.796875-3.597656 2.796875-5.878906s-1.027344-4.4375-2.796875-5.875zm0 0"/></svg>