<svg height="512pt" viewBox="0 0 512 512.002" width="512pt" xmlns="http://www.w3.org/2000/svg"><path d="M493.258 222.078H368.156c-10.336 0-18.742 8.406-18.742 18.742v94.52c0 4.18 3.39 7.57 7.574 7.57a7.573 7.573 0 007.575-7.57v-63.488h132.289v190.375h-132.29v-91.48a7.574 7.574 0 00-7.574-7.575 7.574 7.574 0 00-7.574 7.574v122.512c0 10.336 8.406 18.746 18.742 18.746h125.102c10.336 0 18.746-8.41 18.746-18.746V240.82c-.004-10.336-8.41-18.742-18.746-18.742zm-128.695 34.625V240.82a3.6 3.6 0 013.593-3.593h125.102a3.603 3.603 0 013.597 3.593v15.883zm128.695 240.149H368.156a3.6 3.6 0 01-3.594-3.594V477.37h132.29v15.887a3.6 3.6 0 01-3.594 3.594zm0 0M285.262 0H99.64a7.574 7.574 0 00-7.575 7.574 7.574 7.574 0 007.575 7.574h185.62a5.91 5.91 0 015.903 5.907v162.27H15.148V21.054a5.914 5.914 0 015.907-5.907H63.62a7.574 7.574 0 007.574-7.574A7.574 7.574 0 0063.621 0H21.055C9.445 0 0 9.445 0 21.055v196.804c0 11.61 9.445 21.055 21.055 21.055h90.828v25.29H99.238c-7.894 0-14.312 6.421-14.312 14.316v24.261c0 7.895 6.418 14.317 14.312 14.317h107.84c7.89 0 14.313-6.422 14.313-14.317V278.52c0-7.895-6.422-14.317-14.313-14.317H194.43v-25.289h90.832c11.605 0 21.05-9.445 21.05-21.055V21.055c0-11.61-9.445-21.055-21.05-21.055zm-98.407 279.352h19.387v22.597H100.07v-22.597h19.387a7.574 7.574 0 007.574-7.575v-32.863h52.25v32.863a7.574 7.574 0 007.574 7.575zm98.407-55.586H21.055a5.914 5.914 0 01-5.907-5.907v-19.386h276.016v19.386a5.91 5.91 0 01-5.902 5.907zm0 0M383.469 131.559a7.582 7.582 0 004.32-6.84v-15.653h14.137v69.176a7.574 7.574 0 007.574 7.574h32.316a7.574 7.574 0 007.575-7.574v-92.91c0-13.086-10.649-23.73-23.735-23.73H387.79V45.949a7.575 7.575 0 00-12.351-5.879l-48.473 39.387c-1.77 1.438-2.8 3.598-2.8 5.879s1.03 4.437 2.8 5.879l48.473 39.383a7.583 7.583 0 008.03.96zm-10.828-30.067v7.313L343.75 85.332l28.89-23.473v7.317a7.574 7.574 0 007.575 7.574h45.441c4.735 0 8.586 3.852 8.586 8.586v85.332h-17.168v-69.176a7.574 7.574 0 00-7.574-7.574h-29.285a7.574 7.574 0 00-7.574 7.574zm0 0M249.668 450.074l-48.473-39.386a7.583 7.583 0 00-8.03-.961 7.582 7.582 0 00-4.321 6.84v15.652h-14.137v-69.176a7.574 7.574 0 00-7.574-7.574h-32.317a7.574 7.574 0 00-7.574 7.574v22.723c0 4.183 3.39 7.574 7.574 7.574s7.575-3.39 7.575-7.574v-15.149h17.168v69.176a7.574 7.574 0 007.574 7.574h29.285a7.574 7.574 0 007.574-7.574v-7.313l28.89 23.47-28.89 23.472v-7.313a7.574 7.574 0 00-7.574-7.574h-45.441c-4.735 0-8.586-3.851-8.586-8.586v-34.824c0-4.184-3.391-7.574-7.575-7.574s-7.574 3.39-7.574 7.574v34.824c0 13.086 10.649 23.735 23.735 23.735h37.867v15.652a7.575 7.575 0 0012.351 5.879l48.473-39.387a7.574 7.574 0 000-11.754zm0 0"/></svg>