<svg xmlns="http://www.w3.org/2000/svg" viewBox="0 0 512 512"><path d="M512 256c0 7.91-.355 15.726-1.066 23.448a245.065 245.065 0 01-2.299 18.119C488.782 419.182 383.227 512 256 512c-64.805 0-123.977-24.074-169.075-63.781a256.87 256.87 0 01-43.802-49.977C15.882 357.564 0 308.632 0 256 0 114.615 114.615 0 256 0s256 114.615 256 256z" fill="#f2f2f2"/><path d="M446.767 284.975c-7.764 2.936-7.45 2.988-11.557-4.493-5.245-9.529-8.035-19.55-8.276-30.448-.199-9.352 2.361-18.045 5.58-26.572 2.57-6.781-.773-9.174-6.646-9.791-4.274-.439-8.683-.397-12.967.042-11.139 1.139-12.236 2.1-15.193 12.915-1.755 6.416-3.156 12.884-6.071 18.975-7.189 14.994-15.36 29.435-23.74 43.771-1.505 2.581-2.748 5.36-4.869 7.565-6.071-9.091-8.359-19.132-8.871-29.665-.512-10.397 2.675-20.062 6.175-29.623 1.181-3.218.199-5.214-2.581-6.604-1.233-.616-2.612-1.191-3.96-1.296-7.147-.564-14.273-.481-21.243 1.473-3.135.867-5.183 2.623-5.883 6.144a93.771 93.771 0 01-6.343 20.01c-7.941 17.826-15.83 35.683-23.761 53.52-6.896 15.496-13.688 31.033-21.859 45.913-.575 1.055-1.055 2.884-2.497 2.518-1.463-.366-.951-2.163-1.014-3.396-.47-8.777 1.923-17.147 3.96-25.527 3.229-13.26 6.76-26.457 10.188-39.675.982-3.793-.669-6.343-3.814-8.161-4.524-2.602-9.028-2.727-13.928.919.669-5.392.961-10.125.731-14.858-.522-10.553-5.413-17.418-13.928-19.007-6.217-1.16-12.1.648-17.659 3.281-12.957 6.134-23.374 15.381-32.131 26.603-1.024 1.306-2.058 2.508-3.542 3.312-16.436 8.955-32.862 17.91-49.256 26.948-1.797 1.003-2.957.721-4.253-.669-8.255-8.85-17.836-16.154-27.324-23.562-13.26-10.365-26.979-20.187-38.421-32.684-6.687-7.314-12.267-15.329-15.057-25.004-4.556-15.82-1.149-30.553 6.437-44.554 8.976-16.562 22.288-29.351 36.968-40.741 23.312-18.077 48.88-32.434 75.828-44.251 30.177-13.218 61.482-21.734 94.824-20.449 13.208.512 26.028 2.8 37.794 9.268 8.328 4.577 13.845 11.191 15.402 20.898 1.829 11.368-.899 21.87-5.945 31.828-11.274 22.246-29.194 38.003-50.375 50.343-17.638 10.271-36.665 16.792-56.801 20.208-11.128 1.891-22.298 3.03-33.489 1.327-12.842-1.954-24.712-6.248-33.499-16.593-1.014-1.191-2.299-2.017-4.023-1.181-1.766.857-1.63 2.424-1.463 3.929.125 1.034.408 2.079.773 3.062 2.351 6.343 6.75 11.128 11.901 15.308 13.396 10.898 29.268 14.096 45.934 14.42 16.311.324 32.371-1.745 48.264-5.548 35.85-8.568 65.881-26.154 87.803-56.289 13.103-18.014 21.4-37.867 20.668-60.583-.47-14.409-5.319-27.136-15.82-37.48-12.487-12.278-27.982-18.453-44.607-22.162-18.516-4.117-37.219-4.702-56.111-2.445-16.436 1.964-32.496 5.329-48.128 10.71-23.918 8.244-47.02 18.369-69.13 30.678-22.653 12.601-44.001 27.032-62.725 45.108-16.572 15.997-30.814 33.646-38.839 55.557-3.427 9.383-5.893 19.028-3.594 29.174 2.947 13.061 9.383 24.367 17.847 34.565 12.8 15.444 28.505 27.606 44.701 39.225 13.009 9.341 26.624 17.847 39.121 27.888 3.542 2.842 3.521 2.842-.648 5.026-4.869 2.539-9.791 4.984-14.576 7.69-19.298 10.91-37.949 22.738-53.174 39.175-7.492 8.098-12.581 17.189-14.952 27.282a256.811 256.811 0 0043.802 49.977c28.432-2.215 50.197-17.011 66.278-41.482 7.764-11.818 11.4-25.192 12.769-39.299 1.202-12.434-.063-24.472-3.72-36.342-.637-2.09-3.009-4.169-2.079-6.008.867-1.693 3.48-2.55 5.402-3.657 7.753-4.504 15.527-8.944 23.51-13.531.345 1.714-.324 2.717-.616 3.803-4.577 16.792-7.764 33.719-4.284 51.169 2.163 10.867 5.768 21.096 12.622 30.093 7.053 9.258 22.8 8.202 29.194-.251 6.071-8.025 10.094-17.074 14.284-26.081 2.299-4.932 4.409-9.947 6.604-14.932-.408 5.998-.387 11.849-.167 17.68.219 5.747 1.139 11.421 4.127 16.499 3.594 6.102 10.355 7.879 16.635 4.618 6.625-3.438 11.139-9.101 14.649-15.245 15.057-26.425 29.027-53.415 40.594-81.596 2.466-5.987 4.995-11.964 7.785-18.62.428 2.184.711 3.521.972 4.859 2.57 13.427 7.147 26.133 13.772 38.076 1.421 2.56 1.264 4.326-.533 6.781-6.102 8.307-12.79 16.123-19.383 24.022-5.538 6.646-11.463 12.999-16.144 20.313-4.2 6.583-1.787 13.322 5.204 14.817 2.152.46 4.42.596 6.625.564 12.215-.146 23.489-3.793 33.991-9.77 14.137-8.056 22.518-19.864 22.131-36.676-.178-7.649-2.247-14.994-5.329-22.006-.679-1.557-.711-2.685.303-4.148 9.791-14.023 18.442-28.724 26.394-43.854 1.411-2.664 2.403-5.622 4.681-8.223.303 1.055.543 1.714.679 2.393 2.529 12.539 5.935 24.795 12.33 35.986 1.755 3.062.878 4.618-1.546 6.666-8.349 7.095-15.391 15.37-20.919 24.848-4.305 7.377-7.252 15.255-7.22 23.897.031 9.613 7.387 15.276 16.76 13.019 9.77-2.341 18.829-6.322 26.958-12.267 17.711-12.967 22.904-26.645 17.356-45.735-2.173-7.513-2.132-7.387 5.402-9.665 16.478-4.974 33.196-5.183 49.998-2.445 1.902.313 3.783.669 5.642 1.076a245.533 245.533 0 002.299-18.119c-21.494-5.254-42.957-2.527-64.168 5.529zM98.586 419.401c-4.775 1.693-9.738 2.414-14.817 2.017-6.322-.502-10.334-4.963-10.742-11.672-.46-7.732 1.829-14.712 5.214-21.504 6.154-12.33 16.488-20.699 27.032-28.912 10.25-7.993 21.264-14.817 32.402-21.452 3.375-2.006 3.427-1.985 4.2 2.038 1.003 5.162 1.902 10.334 1.567 15.026.879 28.138-19.559 55.504-44.856 64.459zm153.37-141.887c-1.776 11.86-5.653 23.155-9.78 34.314-5.622 15.235-11.097 30.542-18.171 45.192-1.62 3.375-3.323 6.729-5.945 9.477-2.476 2.602-4.671 2.299-6.384-.878-3.344-6.207-2.926-13.113-3.469-18.129.157-25.161 8.6-45.725 22.507-64.209 3.887-5.151 8.85-9.341 15.423-11.024 4.461-1.137 6.519.66 5.819 5.257zm97.385 74.491c-4.765 8.234-11.63 14.221-20.052 18.484-.899.449-2.058 1.243-2.873.188-.773-.993.47-1.651 1.034-2.278 8.37-9.143 16.635-18.359 24.085-28.275.115-.157.397-.178 1.034-.449-.073 4.588-1.076 8.621-3.228 12.33zm57.793-.355c-1.243.585-2.685 1.682-3.897.742-1.337-1.034-.805-2.863-.397-4.263 1.902-6.384 4.462-12.497 7.993-18.192 2.967-4.796 6.646-8.986 10.689-12.894 1.63-1.567 2.361-1.379 2.915.878.575 2.309.627 4.618.669 6.969-.104 12.863-6.635 21.421-17.972 26.76z" fill="#cd6699"/></svg>