<svg xmlns="http://www.w3.org/2000/svg" viewBox="0 0 384 384"><path fill="#efeeee" d="M64 0v384h224l96-96V0z"/><path fill="#ababab" d="M288 288v96l96-96z"/><path fill="#dededd" d="M192 384h96v-96z"/><path d="M0 96v112h256V96H0z" fill="#cb5641"/><g fill="#fff"><path d="M64.32 130.112c-1.184-2.288-3.344-3.424-6.48-3.424-1.728 0-3.152.464-4.272 1.408-1.12.928-2 2.416-2.64 4.496s-1.088 4.8-1.344 8.176c-.272 3.36-.384 7.472-.384 12.336 0 5.184.176 9.376.528 12.576.336 3.2.896 5.664 1.632 7.44s1.664 2.96 2.784 3.552c1.12.608 2.416.928 3.888.928 1.216 0 2.352-.208 3.408-.624s1.968-1.248 2.736-2.496c.784-1.248 1.392-3.008 1.824-5.28.448-2.272.672-5.264.672-8.976H80.48c0 3.696-.288 7.232-.864 10.56s-1.664 6.24-3.216 8.736c-1.584 2.48-3.776 4.432-6.624 5.84-2.848 1.408-6.544 2.128-11.088 2.128-5.168 0-9.312-.848-12.368-2.496-3.072-1.664-5.424-4.064-7.056-7.2s-2.688-6.88-3.168-11.232c-.464-4.336-.72-9.152-.72-14.384 0-5.184.256-9.968.72-14.352.48-4.368 1.552-8.144 3.168-11.28 1.648-3.12 3.984-5.584 7.056-7.344 3.056-1.744 7.2-2.64 12.368-2.64 4.944 0 8.816.8 11.664 2.4 2.848 1.6 4.976 3.632 6.368 6.096s2.304 5.12 2.64 7.968c.352 2.848.528 5.52.528 8.016H66.08c0-5.04-.592-8.672-1.76-10.928zM122.144 117.856c3.52 0 6.48.592 8.896 1.776 2.384 1.184 4.336 2.736 5.792 4.656a18.464 18.464 0 013.168 6.576c.64 2.448.96 4.976.96 7.536 0 3.52-.512 6.592-1.584 9.216-1.04 2.624-2.528 4.768-4.416 6.416-1.872 1.664-4.176 2.928-6.864 3.744-2.688.816-5.664 1.264-8.928 1.264h-7.392v27.36H97.952v-68.544h24.192zm-4.224 31.04c2.752 0 4.976-.848 6.672-2.512 1.68-1.664 2.544-4.256 2.544-7.776 0-3.456-.736-6.08-2.224-7.872-1.472-1.776-3.92-2.688-7.392-2.688h-5.744v20.848h6.144zM181.584 117.84c3.52 0 6.464.608 8.88 1.792s4.336 2.736 5.808 4.656c1.472 1.92 2.528 4.112 3.168 6.576.624 2.448.96 4.976.96 7.536 0 3.52-.528 6.592-1.584 9.216-1.056 2.624-2.528 4.768-4.416 6.416-1.888 1.664-4.176 2.928-6.864 3.744-2.688.816-5.664 1.248-8.944 1.248H171.2v27.36h-13.824V117.84h24.208zm-4.24 31.056c2.752 0 4.992-.848 6.672-2.512 1.696-1.664 2.544-4.256 2.544-7.776 0-3.456-.736-6.08-2.208-7.872-1.472-1.776-3.936-2.688-7.392-2.688h-5.76v20.848h6.144z"/></g></svg>