<svg xmlns="http://www.w3.org/2000/svg" viewBox="0 0 512 512"><path d="M512 256c0 84.344-40.793 159.159-103.717 205.803-26.342 19.519-56.56 34.105-89.287 42.381C298.841 509.294 277.744 512 256 512s-42.851-2.706-63.007-7.816c-32.726-8.276-62.945-22.862-89.287-42.392C40.782 415.148 0 340.334 0 256 0 114.615 114.615 0 256 0s256 114.615 256 256z" fill="#5adafd"/><g fill="#f2f2f2"><path d="M408.545 400.144c-1.202-8.056-2.79-16.353-4.754-24.837a395.266 395.266 0 00-6.039-22.758c-6.019-20.25-13.949-41.294-23.562-62.568a585.608 585.608 0 00-13.584-27.972 607.752 607.752 0 00-13.49-24.639 595.135 595.135 0 00-14.597-24.001 574.15 574.15 0 00-17.429-25.736c-13.605-18.965-27.867-36.362-42.402-51.702a377.503 377.503 0 00-16.687-16.593c-6.363-5.956-12.758-11.483-19.143-16.551-41.681-33.092-78.994-43.029-105.085-27.972-26.091 15.067-36.143 52.349-28.327 105.002 1.191 8.056 2.79 16.353 4.765 24.837a370.546 370.546 0 006.029 22.758c6.019 20.25 13.949 41.305 23.573 62.568 4.201 9.3 8.735 18.63 13.573 27.961a621.244 621.244 0 0013.49 24.649 595.135 595.135 0 0014.597 24.001 584.754 584.754 0 0017.429 25.746c13.605 18.965 27.867 36.352 42.402 51.691a378.503 378.503 0 0016.697 16.603 314.074 314.074 0 0019.132 16.541c15.329 12.173 30.062 21.211 43.865 27.011 32.726-8.276 62.945-22.862 89.286-42.381 3.677-16.947 3.813-37.709.261-61.658zM385.076 458c-3.041 13.145-8.631 22.152-16.624 26.76-7.983 4.618-18.578 4.953-31.483 1.024-13.981-4.274-30.302-13.615-47.208-27.042-5.684-4.514-11.379-9.425-17.074-14.702a360.512 360.512 0 01-16.697-16.583c-9.509-10.062-18.913-21.076-28.087-32.893a529.686 529.686 0 01-18.035-24.691 581.407 581.407 0 01-24.618-39.048c-7.847-13.584-15.036-27.251-21.504-40.845a519.86 519.86 0 01-12.361-27.961c-5.653-13.855-10.491-27.512-14.451-40.772-2.299-7.732-4.315-15.318-5.998-22.747-1.735-7.565-3.145-14.963-4.211-22.141-3.176-21.347-3.103-40.155.188-54.397 3.041-13.145 8.641-22.152 16.624-26.76 4.315-2.487 9.383-3.741 15.161-3.741 4.932 0 10.386.909 16.321 2.727 13.981 4.263 30.302 13.615 47.208 27.032a285.702 285.702 0 0117.074 14.723c5.59 5.172 11.16 10.71 16.687 16.562 9.519 10.062 18.923 21.076 28.108 32.904a529.686 529.686 0 0118.035 24.691 587.935 587.935 0 0124.607 39.037c7.847 13.584 15.036 27.251 21.504 40.845a523.678 523.678 0 0112.361 27.972c5.653 13.855 10.491 27.502 14.451 40.761 2.299 7.732 4.315 15.318 6.008 22.747 1.724 7.565 3.135 14.963 4.201 22.141 3.178 21.347 3.105 40.155-.187 54.397z"/><path d="M427.677 212.961c-7.576-2.988-15.559-5.757-23.897-8.307a386.866 386.866 0 00-22.727-6.154c-20.543-4.911-42.736-8.568-65.964-10.867a568.34 568.34 0 00-30.992-2.226 608.89 608.89 0 00-56.205 0 578.157 578.157 0 00-31.002 2.226c-23.228 2.299-45.411 5.956-65.954 10.867a388.075 388.075 0 00-22.727 6.154c-8.338 2.539-16.321 5.319-23.897 8.307C34.816 232.5 7.544 259.856 7.544 289.98c0 30.124 27.272 57.48 76.769 77.03 7.576 2.988 15.548 5.757 23.886 8.307a379.252 379.252 0 0022.727 6.144c20.543 4.921 42.736 8.568 65.975 10.877a589.77 589.77 0 0031.002 2.226c9.258.428 18.641.637 28.097.637 9.456 0 18.829-.209 28.087-.637a590.546 590.546 0 0031.002-2.226c23.228-2.299 45.432-5.956 65.975-10.877 7.826-1.87 15.412-3.918 22.727-6.154 8.328-2.539 16.311-5.308 23.886-8.297 49.507-19.55 76.769-46.905 76.769-77.03-.001-30.124-27.262-57.48-76.769-77.019zm38.368 104.792c-10.679 9.979-26.937 19.435-47.01 27.366a291.319 291.319 0 01-21.285 7.429 355.454 355.454 0 01-22.695 6.165c-13.469 3.208-27.711 5.841-42.538 7.879a509.562 509.562 0 01-30.386 3.271c-15.015 1.202-30.448 1.808-46.132 1.808s-31.117-.606-46.132-1.797a518.257 518.257 0 01-30.396-3.281c-14.827-2.038-29.069-4.671-42.538-7.879a355.454 355.454 0 01-22.695-6.165 291.484 291.484 0 01-21.285-7.429c-20.072-7.931-36.331-17.387-47.01-27.366-9.864-9.206-14.869-18.547-14.869-27.773 0-9.226 5.005-18.568 14.869-27.773 10.679-9.979 26.937-19.435 47.01-27.366a291.319 291.319 0 0121.285-7.429 355.454 355.454 0 0122.695-6.165c13.469-3.208 27.711-5.841 42.538-7.879a518.257 518.257 0 0130.396-3.281c15.015-1.191 30.448-1.797 46.132-1.797s31.117.606 46.132 1.808a509.562 509.562 0 0130.386 3.271c14.827 2.038 29.069 4.671 42.538 7.879a355.454 355.454 0 0122.695 6.165 291.484 291.484 0 0121.285 7.429c20.072 7.931 36.331 17.387 47.01 27.366 9.864 9.206 14.869 18.547 14.869 27.773 0 9.225-5.005 18.566-14.869 27.771z"/><path d="M380.217 74.815c-26.091-15.057-63.404-5.12-105.085 27.972-6.374 5.068-12.769 10.595-19.132 16.551a377.958 377.958 0 00-16.697 16.603c-14.535 15.339-28.797 32.726-42.412 51.691a582.016 582.016 0 00-17.418 25.736 595.135 595.135 0 00-14.597 24.001 622.533 622.533 0 00-13.49 24.649 579.64 579.64 0 00-13.573 27.961c-9.624 21.274-17.554 42.318-23.573 62.568a381.325 381.325 0 00-6.04 22.768c-1.964 8.485-3.563 16.771-4.754 24.827-3.553 23.939-3.417 44.701.261 61.649 26.342 19.529 56.56 34.116 89.287 42.392 13.803-5.799 28.536-14.838 43.865-27.011 6.384-5.068 12.779-10.595 19.143-16.541a377.503 377.503 0 0016.687-16.593c14.524-15.339 28.797-32.737 42.402-51.702a586.83 586.83 0 0017.429-25.746 595.135 595.135 0 0014.597-24.001 602.841 602.841 0 0013.49-24.639 585.608 585.608 0 0013.584-27.972c9.613-21.264 17.544-42.318 23.562-62.568a386.265 386.265 0 006.029-22.758c1.975-8.485 3.563-16.781 4.765-24.837 7.813-52.651-2.238-89.933-28.33-105zm-5.161 146.432c-3.96 13.26-8.798 26.906-14.451 40.761a524.484 524.484 0 01-12.361 27.972c-6.468 13.594-13.657 27.261-21.504 40.845a588.347 588.347 0 01-24.607 39.037 532.108 532.108 0 01-18.045 24.701c-9.174 11.818-18.578 22.831-28.097 32.893-5.527 5.851-11.097 11.389-16.687 16.572a288.85 288.85 0 01-17.074 14.712c-16.906 13.427-33.228 22.768-47.208 27.042-12.904 3.929-23.5 3.594-31.483-1.024-7.983-4.608-13.584-13.615-16.624-26.76-3.291-14.242-3.365-33.05-.188-54.397 1.066-7.178 2.476-14.576 4.2-22.141 1.693-7.429 3.709-15.015 6.008-22.747 3.96-13.26 8.798-26.917 14.451-40.772a520.302 520.302 0 0112.361-27.961c6.468-13.594 13.657-27.261 21.504-40.845a581.407 581.407 0 0124.618-39.048 523.41 523.41 0 0118.024-24.68c9.185-11.828 18.589-22.841 28.097-32.904a355.726 355.726 0 0116.697-16.572c5.695-5.287 11.389-10.198 17.074-14.712 16.906-13.416 33.228-22.768 47.208-27.032 5.935-1.818 11.389-2.727 16.321-2.727 5.778 0 10.856 1.254 15.161 3.741 7.993 4.608 13.584 13.615 16.624 26.76 3.291 14.242 3.365 33.05.188 54.397-1.066 7.178-2.476 14.576-4.211 22.141-1.681 7.429-3.698 15.015-5.996 22.748z"/><circle cx="256" cy="289.98" r="46.696"/></g></svg>